<?xml version="1.0" encoding="UTF-8" standalone="no"?>
<!-- Generator: Adobe Illustrator 19.0.0, SVG Export Plug-In . SVG Version: 6.00 Build 0)  -->

<svg
   xmlns:dc="http://purl.org/dc/elements/1.1/"
   xmlns:cc="http://creativecommons.org/ns#"
   xmlns:rdf="http://www.w3.org/1999/02/22-rdf-syntax-ns#"
   xmlns:svg="http://www.w3.org/2000/svg"
   xmlns="http://www.w3.org/2000/svg"
   xmlns:sodipodi="http://sodipodi.sourceforge.net/DTD/sodipodi-0.dtd"
   xmlns:inkscape="http://www.inkscape.org/namespaces/inkscape"
   version="1.1"
   id="Layer_1"
   x="0px"
   y="0px"
   viewBox="0 0 505 505"
   style="enable-background:new 0 0 505 505;"
   xml:space="preserve"
   sodipodi:docname="welcome.svg"
   inkscape:version="0.92.0 r15299"><metadata
     id="metadata43"><rdf:RDF><cc:Work
         rdf:about=""><dc:format>image/svg+xml</dc:format><dc:type
           rdf:resource="http://purl.org/dc/dcmitype/StillImage" /><dc:title></dc:title></cc:Work></rdf:RDF></metadata><defs
     id="defs41" /><sodipodi:namedview
     pagecolor="#ffffff"
     bordercolor="#666666"
     borderopacity="1"
     objecttolerance="10"
     gridtolerance="10"
     guidetolerance="10"
     inkscape:pageopacity="0"
     inkscape:pageshadow="2"
     inkscape:window-width="1920"
     inkscape:window-height="1017"
     id="namedview39"
     showgrid="false"
     inkscape:zoom="0.46732674"
     inkscape:cx="-209.33448"
     inkscape:cy="-93.800242"
     inkscape:window-x="-8"
     inkscape:window-y="-8"
     inkscape:window-maximized="1"
     inkscape:current-layer="Layer_1"
     borderlayer="true" /><path
     style="fill:#ded1f2;fill-opacity:1;stroke-width:1.194754"
     d="m 54.471192,356.14658 c 0,-166.66819 135.007198,-301.675388 301.675388,-301.675388 166.5487,0 301.67538,135.007198 301.67538,301.675388 0,166.66817 -135.12668,301.67538 -301.67538,301.67538 -166.66819,0 -301.675388,-135.00721 -301.675388,-301.67538 z"
     id="path2"
     inkscape:connector-curvature="0" /><g
     id="g8"
     transform="scale(1.3026177)" /><g
     id="g10"
     transform="scale(1.3026177)" /><g
     id="g12"
     transform="scale(1.3026177)" /><g
     id="g14"
     transform="scale(1.3026177)" /><g
     id="g16"
     transform="scale(1.3026177)" /><g
     id="g18"
     transform="scale(1.3026177)" /><g
     id="g20"
     transform="scale(1.3026177)" /><g
     id="g22"
     transform="scale(1.3026177)" /><g
     id="g24"
     transform="scale(1.3026177)" /><g
     id="g26"
     transform="scale(1.3026177)" /><g
     id="g28"
     transform="scale(1.3026177)" /><g
     id="g30"
     transform="scale(1.3026177)" /><g
     id="g32"
     transform="scale(1.3026177)" /><g
     id="g34"
     transform="scale(1.3026177)" /><g
     id="g36"
     transform="scale(1.3026177)" /><g
     transform="translate(107.14129,82.560247)"
     id="g48" /><g
     transform="translate(107.14129,82.560247)"
     id="g50" /><g
     transform="translate(107.14129,82.560247)"
     id="g52" /><g
     transform="translate(107.14129,82.560247)"
     id="g54" /><g
     transform="translate(107.14129,82.560247)"
     id="g56" /><g
     transform="translate(107.14129,82.560247)"
     id="g58" /><g
     transform="translate(107.14129,82.560247)"
     id="g60" /><g
     transform="translate(107.14129,82.560247)"
     id="g62" /><g
     transform="translate(107.14129,82.560247)"
     id="g64" /><g
     transform="translate(107.14129,82.560247)"
     id="g66" /><g
     transform="translate(107.14129,82.560247)"
     id="g68" /><g
     transform="translate(107.14129,82.560247)"
     id="g70" /><g
     transform="translate(107.14129,82.560247)"
     id="g72" /><g
     transform="translate(107.14129,82.560247)"
     id="g74" /><g
     transform="translate(107.14129,82.560247)"
     id="g76" /><path
     inkscape:connector-curvature="0"
     style="fill:#9178b7;fill-opacity:1;stroke-width:0.7622388"
     d="m 471.70753,166.32488 c -77.82618,4.79355 -142.78939,43.9911 -195.06971,105.09323 -16.79896,19.63452 -31.14669,40.19998 -43.25512,59.9376 -22.57338,0.50894 -46.89353,12.27372 -63.47264,31.09183 l -30.23503,34.31937 c -3.42105,3.88302 -3.80685,9.58122 -0.94168,13.89007 2.86514,4.30888 8.26558,6.1545 13.17339,4.50452 7.36108,-2.48543 19.38206,-5.59373 31.03776,-6.877 4.26051,-0.46934 7.81509,-0.63152 10.78013,-0.59229 -6.25633,14.14939 -10.9884,25.97119 -12.61633,28.95912 -2.54955,4.69014 -1.52236,10.51743 2.48389,14.04704 l 19.85756,17.4949 c -24.83604,38.78942 -24.08354,57.80269 -23.81836,60.4859 0.55942,5.68392 5.33945,10.73944 12.69703,10.27405 6.37101,-0.40297 24.47176,-4.26204 56.17287,-31.0686 l 20.88827,18.40193 c 4.0347,3.55468 10.00242,3.81532 14.33574,0.6294 2.9476,-2.17047 13.41879,-8.08328 25.94365,-15.67183 0.82461,9.64103 0.4109,23.90126 -1.21734,43.29819 -0.92709,11.00189 12.73843,16.7246 19.97319,8.516 l 30.2351,-34.31828 c 15.59094,-17.69638 23.67853,-43.02761 21.49853,-66.17258 19.02664,-15.16892 38.69751,-32.8878 56.83407,-53.07229 60.04822,-66.82948 90.22709,-145.43642 74.68993,-233.91228 -0.92387,-5.26702 -5.37582,-9.19208 -10.72023,-9.44475 -9.94591,-0.47222 -19.69706,-0.40189 -29.25467,0.18678 z m 0.50963,22.86272 c 6.06284,-0.38976 12.18954,-0.5495 18.37936,-0.48009 3.37786,24.48927 2.94334,48.46114 -1.25761,71.89929 -14.33849,-3.53838 -28.63204,-11.36608 -41.82916,-22.9902 -13.24486,-11.67182 -22.83408,-24.92078 -28.1363,-38.75079 17.03877,-5.2777 34.65518,-8.50945 52.84371,-9.67823 z m -74.32131,17.54698 c 6.60817,17.40214 18.36662,33.82738 34.49912,48.04044 16.05683,14.14921 33.75124,23.72341 51.77137,28.11191 -20.17461,70.45924 -75.4902,135.83472 -165.48985,195.39056 l -21.75348,-19.16841 c 14.0864,-17.61617 12.50646,-33.63284 11.32025,-52.38633 -0.39866,-6.30264 -5.82987,-11.08769 -12.13254,-10.68902 -17.5203,1.10819 -34.44029,1.23603 -50.54225,17.83412 l -20.7746,-18.30286 C 272.22775,298.63684 330.15088,235.50774 397.89591,206.73458 Z m -22.02226,51.06511 c -14.61152,0.92421 -28.87016,7.40963 -39.28917,19.23569 -20.83783,23.65511 -18.54807,59.85539 5.10405,80.69335 23.65214,20.83804 59.85146,18.55132 80.69227,-5.10399 20.83801,-23.65209 18.54826,-59.85236 -5.10406,-80.69335 -11.82755,-10.4189 -26.79158,-15.05592 -41.40309,-14.1317 z m 1.44207,22.81269 c 8.76681,-0.55489 17.74542,2.22685 24.84318,8.47872 14.19254,12.50392 15.56633,34.22304 3.0624,48.41557 -12.50393,14.19258 -34.22601,15.56655 -48.41558,3.06241 -14.19254,-12.50392 -15.56632,-34.22302 -3.06241,-48.41558 6.25058,-7.09469 14.8056,-10.98622 23.57241,-11.54112 z m -158.69374,76.27249 c -5.53628,10.15678 -10.43217,19.83112 -14.72535,28.74575 -7.57778,-1.17655 -15.90562,-0.95705 -23.88302,-0.0557 l 7.05308,-8.00915 c 8.53192,-9.68097 19.9625,-16.98806 31.55529,-20.68094 z m -3.9498,60.23727 15.97157,14.0744 c -5.21019,6.35019 -9.89555,12.36621 -14.10052,18.0531 l -11.45942,-10.09391 c 2.16111,-5.02951 4.76107,-11.328 9.58837,-22.03359 z m 71.49405,2.43892 c 0.39358,9.66537 -0.63284,18.00635 -8.3963,26.81826 -33.18605,37.66773 -56.46896,55.0239 -70.54436,63.0029 6.2282,-15.2545 20.5354,-40.83555 53.38465,-78.12101 7.78869,-8.83735 15.66535,-10.85973 25.55601,-11.70015 z m -4.53759,56.55107 17.00103,14.97928 c -10.15832,6.27835 -14.41109,8.66817 -20.56809,12.36033 L 265.54966,492.4253 c 5.08387,-4.90411 10.44316,-10.32392 16.07896,-16.31317 z m 75.18594,4.11746 c -1.95883,12.23671 -7.33562,24.33715 -15.31638,33.39245 l -8.55732,9.71549 c 0.0398,-11.11589 -0.72587,-19.16383 -2.16543,-25.32011 8.0928,-5.25556 16.86767,-11.19014 26.03913,-17.78783 z"
     id="path2-1" /><rect
     style="opacity:0.5;fill:#ffffff;fill-opacity:0.78431373;fill-rule:evenodd;stroke:none;stroke-width:5.62767839;stroke-linecap:round;stroke-linejoin:round;stroke-miterlimit:4;stroke-dasharray:none;stroke-dashoffset:0;stroke-opacity:1;paint-order:stroke fill markers"
     id="rect4504"
     width="768.56519"
     height="678.05548"
     x="-67.682457"
     y="14.459143" /></svg>